# Blender 5.0.1
# www.blender.org
mtllib 的.mtl
o Cube
v -0.000500 -0.000500 0.000500
v -0.000500 0.000500 0.000500
v -0.000500 -0.000500 -0.000500
v -0.000500 0.000500 -0.000500
v 0.000500 -0.000500 0.000500
v 0.000500 0.000500 0.000500
v 0.000500 -0.000500 -0.000500
v 0.000500 0.000500 -0.000500
vn -1.0000 -0.0000 -0.0000
vn -0.0000 -0.0000 -1.0000
vn 1.0000 -0.0000 -0.0000
vn -0.0000 -0.0000 1.0000
vn -0.0000 -1.0000 -0.0000
vn -0.0000 1.0000 -0.0000
vt 0.375000 0.000000
vt 0.625000 0.000000
vt 0.625000 0.250000
vt 0.375000 0.250000
vt 0.625000 0.500000
vt 0.375000 0.500000
vt 0.625000 0.750000
vt 0.375000 0.750000
vt 0.625000 1.000000
vt 0.375000 1.000000
vt 0.125000 0.500000
vt 0.125000 0.750000
vt 0.875000 0.500000
vt 0.875000 0.750000
s 0
f 1/1/1 2/2/1 4/3/1 3/4/1
f 3/4/2 4/3/2 8/5/2 7/6/2
f 7/6/3 8/5/3 6/7/3 5/8/3
f 5/8/4 6/7/4 2/9/4 1/10/4
f 3/11/5 7/6/5 5/8/5 1/12/5
f 8/5/6 4/13/6 2/14/6 6/7/6
o Cube.001
v -0.227901 1.984305 1.000000
v -0.129420 2.001670 1.000000
v -0.227901 1.984305 -1.000000
v -0.129420 2.001670 -1.000000
v -0.193171 1.787344 1.000000
v -0.094690 1.804709 1.000000
v -0.193171 1.787344 -1.000000
v -0.094690 1.804709 -1.000000
vn -0.1736 0.9848 -0.0000
vn -0.0000 -0.0000 -1.0000
vn 0.1736 -0.9848 -0.0000
vn -0.0000 -0.0000 1.0000
vn -0.9848 -0.1736 -0.0000
vn 0.9848 0.1736 -0.0000
vt 0.375000 0.000000
vt 0.625000 0.000000
vt 0.625000 0.250000
vt 0.375000 0.250000
vt 0.625000 0.500000
vt 0.375000 0.500000
vt 0.625000 0.750000
vt 0.375000 0.750000
vt 0.625000 1.000000
vt 0.375000 1.000000
vt 0.125000 0.500000
vt 0.125000 0.750000
vt 0.875000 0.500000
vt 0.875000 0.750000
s 0
usemtl Material
f 9/15/7 10/16/7 12/17/7 11/18/7
f 11/18/8 12/17/8 16/19/8 15/20/8
f 15/20/9 16/19/9 14/21/9 13/22/9
f 13/22/10 14/21/10 10/23/10 9/24/10
f 11/25/11 15/20/11 13/22/11 9/26/11
f 16/19/12 12/27/12 10/28/12 14/21/12
o Cube.002
v 0.016707 -0.002359 -0.825000
v 0.016707 -0.002359 -0.775000
v -0.382684 2.262699 -0.825000
v -0.382684 2.262699 -0.775000
v 0.213668 0.032371 -0.825000
v 0.213668 0.032371 -0.775000
v -0.185723 2.297429 -0.825000
v -0.185723 2.297429 -0.775000
vn -0.9848 -0.1736 -0.0000
vn -0.1736 0.9848 -0.0000
vn 0.9848 0.1736 -0.0000
vn 0.1736 -0.9848 -0.0000
vn -0.0000 -0.0000 -1.0000
vn -0.0000 -0.0000 1.0000
vt 0.375000 0.000000
vt 0.625000 0.000000
vt 0.625000 0.250000
vt 0.375000 0.250000
vt 0.625000 0.500000
vt 0.375000 0.500000
vt 0.625000 0.750000
vt 0.375000 0.750000
vt 0.625000 1.000000
vt 0.375000 1.000000
vt 0.125000 0.500000
vt 0.125000 0.750000
vt 0.875000 0.500000
vt 0.875000 0.750000
s 0
usemtl Material.001
f 17/29/13 18/30/13 20/31/13 19/32/13
f 19/32/14 20/31/14 24/33/14 23/34/14
f 23/34/15 24/33/15 22/35/15 21/36/15
f 21/36/16 22/35/16 18/37/16 17/38/16
f 19/39/17 23/34/17 21/36/17 17/40/17
f 24/33/18 20/41/18 18/42/18 22/35/18
o Cube.003
v -0.771421 0.032371 -0.825000
v -0.771421 0.032371 -0.775000
v -0.372030 2.297429 -0.825000
v -0.372030 2.297429 -0.775000
v -0.574459 -0.002359 -0.825000
v -0.574459 -0.002359 -0.775000
v -0.175068 2.262699 -0.825000
v -0.175068 2.262699 -0.775000
vn -0.9848 0.1736 -0.0000
vn 0.1736 0.9848 -0.0000
vn 0.9848 -0.1736 -0.0000
vn -0.1736 -0.9848 -0.0000
vn -0.0000 -0.0000 -1.0000
vn -0.0000 -0.0000 1.0000
vt 0.375000 0.000000
vt 0.625000 0.000000
vt 0.625000 0.250000
vt 0.375000 0.250000
vt 0.625000 0.500000
vt 0.375000 0.500000
vt 0.625000 0.750000
vt 0.375000 0.750000
vt 0.625000 1.000000
vt 0.375000 1.000000
vt 0.125000 0.500000
vt 0.125000 0.750000
vt 0.875000 0.500000
vt 0.875000 0.750000
s 0
usemtl Material.002
f 25/43/19 26/44/19 28/45/19 27/46/19
f 27/46/20 28/45/20 32/47/20 31/48/20
f 31/48/21 32/47/21 30/49/21 29/50/21
f 29/50/22 30/49/22 26/51/22 25/52/22
f 27/53/23 31/48/23 29/50/23 25/54/23
f 32/47/24 28/55/24 26/56/24 30/49/24
o 畳.001
v -0.182355 2.314124 -0.032856
v -0.123266 2.324543 -0.032856
v -0.123266 2.324543 -0.912856
v -0.182355 2.314124 -0.912856
v 0.182355 0.591281 -0.912856
v 0.123266 0.580862 -0.912856
v 0.182355 0.591281 -0.032856
v 0.123266 0.580862 -0.032856
v -0.122455 2.325701 -0.913856
v -0.183513 2.314935 -0.913856
v -0.183513 2.314935 -0.872856
v -0.122455 2.325701 -0.872856
v -0.183513 2.314935 -0.031856
v -0.122455 2.325701 -0.031856
v -0.122455 2.325701 -0.072856
v -0.183513 2.314935 -0.072856
v 0.183513 0.590470 -0.913856
v 0.122455 0.579704 -0.913856
v 0.183513 0.590470 -0.031856
v 0.122455 0.579704 -0.031856
v 0.122455 0.579704 -0.072856
v 0.183513 0.590470 -0.072856
v 0.183513 0.590470 -0.872856
v 0.122455 0.579704 -0.872856
vn -0.1736 0.9848 -0.0000
vn -0.0000 -0.0000 -1.0000
vn 0.1736 -0.9848 -0.0000
vn -0.0000 -0.0000 1.0000
vn -0.9848 -0.1736 -0.0000
vn 0.9848 0.1736 -0.0000
s 0
f 33//25 34//25 35//25
f 33//25 35//25 36//25
f 36//26 35//26 37//26
f 36//26 37//26 38//26
f 38//27 37//27 39//27
f 38//27 39//27 40//27
f 40//28 39//28 34//28
f 40//28 34//28 33//28
f 36//29 38//29 40//29
f 36//29 40//29 33//29
f 37//30 35//30 34//30
f 37//30 34//30 39//30
f 41//25 42//25 43//25
f 41//25 43//25 44//25
f 45//25 46//25 47//25
f 45//25 47//25 48//25
f 42//26 41//26 49//26
f 42//26 49//26 50//26
f 51//27 52//27 53//27
f 51//27 53//27 54//27
f 50//27 49//27 55//27
f 50//27 55//27 56//27
f 52//28 51//28 46//28
f 52//28 46//28 45//28
f 52//29 45//29 48//29
f 52//29 48//29 53//29
f 42//29 50//29 56//29
f 42//29 56//29 43//29
f 47//30 46//30 51//30
f 47//30 51//30 54//30
f 55//30 49//30 41//30
f 55//30 41//30 44//30
f 56//28 55//28 44//28
f 56//28 44//28 43//28
f 47//26 54//26 53//26
f 47//26 53//26 48//26
o 畳.002
v -0.118230 2.327900 0.016751
v -0.059141 2.338319 0.016751
v -0.059141 2.338319 -0.863249
v -0.118230 2.327900 -0.863249
v 0.246479 0.605058 -0.863249
v 0.187391 0.594639 -0.863249
v 0.246479 0.605058 0.016751
v 0.187391 0.594639 0.016751
v -0.058330 2.339478 -0.864249
v -0.119388 2.328712 -0.864249
v -0.119388 2.328712 -0.823249
v -0.058330 2.339478 -0.823249
v -0.119388 2.328712 0.017751
v -0.058330 2.339478 0.017751
v -0.058330 2.339478 -0.023249
v -0.119388 2.328712 -0.023249
v 0.247638 0.604247 -0.864249
v 0.186580 0.593480 -0.864249
v 0.247638 0.604247 0.017751
v 0.186580 0.593480 0.017751
v 0.186580 0.593480 -0.023249
v 0.247638 0.604247 -0.023249
v 0.247638 0.604247 -0.823249
v 0.186580 0.593480 -0.823249
vn -0.1736 0.9848 -0.0000
vn -0.0000 -0.0000 -1.0000
vn 0.1736 -0.9848 -0.0000
vn -0.0000 -0.0000 1.0000
vn -0.9848 -0.1736 -0.0000
vn 0.9848 0.1736 -0.0000
s 0
f 57//31 58//31 59//31
f 57//31 59//31 60//31
f 60//32 59//32 61//32
f 60//32 61//32 62//32
f 62//33 61//33 63//33
f 62//33 63//33 64//33
f 64//34 63//34 58//34
f 64//34 58//34 57//34
f 60//35 62//35 64//35
f 60//35 64//35 57//35
f 61//36 59//36 58//36
f 61//36 58//36 63//36
f 65//31 66//31 67//31
f 65//31 67//31 68//31
f 69//31 70//31 71//31
f 69//31 71//31 72//31
f 66//32 65//32 73//32
f 66//32 73//32 74//32
f 75//33 76//33 77//33
f 75//33 77//33 78//33
f 74//33 73//33 79//33
f 74//33 79//33 80//33
f 76//34 75//34 70//34
f 76//34 70//34 69//34
f 76//35 69//35 72//35
f 76//35 72//35 77//35
f 66//35 74//35 80//35
f 66//35 80//35 67//35
f 71//36 70//36 75//36
f 71//36 75//36 78//36
f 79//36 73//36 65//36
f 79//36 65//36 68//36
f 80//34 79//34 68//34
f 80//34 68//34 67//34
f 71//32 78//32 77//32
f 71//32 77//32 72//32
o 畳.003
v -0.182355 2.314124 0.868676
v -0.123266 2.324543 0.868676
v -0.123266 2.324543 -0.011324
v -0.182355 2.314124 -0.011324
v 0.182355 0.591281 -0.011324
v 0.123266 0.580862 -0.011324
v 0.182355 0.591281 0.868676
v 0.123266 0.580862 0.868676
v -0.122455 2.325701 -0.012324
v -0.183513 2.314935 -0.012324
v -0.183513 2.314935 0.028676
v -0.122455 2.325701 0.028676
v -0.183513 2.314935 0.869676
v -0.122455 2.325701 0.869676
v -0.122455 2.325701 0.828676
v -0.183513 2.314935 0.828676
v 0.183513 0.590470 -0.012324
v 0.122455 0.579704 -0.012324
v 0.183513 0.590470 0.869676
v 0.122455 0.579704 0.869676
v 0.122455 0.579704 0.828676
v 0.183513 0.590470 0.828676
v 0.183513 0.590470 0.028676
v 0.122455 0.579704 0.028676
vn -0.1736 0.9848 -0.0000
vn -0.0000 -0.0000 -1.0000
vn 0.1736 -0.9848 -0.0000
vn -0.0000 -0.0000 1.0000
vn -0.9848 -0.1736 -0.0000
vn 0.9848 0.1736 -0.0000
s 0
f 81//37 82//37 83//37
f 81//37 83//37 84//37
f 84//38 83//38 85//38
f 84//38 85//38 86//38
f 86//39 85//39 87//39
f 86//39 87//39 88//39
f 88//40 87//40 82//40
f 88//40 82//40 81//40
f 84//41 86//41 88//41
f 84//41 88//41 81//41
f 85//42 83//42 82//42
f 85//42 82//42 87//42
f 89//37 90//37 91//37
f 89//37 91//37 92//37
f 93//37 94//37 95//37
f 93//37 95//37 96//37
f 90//38 89//38 97//38
f 90//38 97//38 98//38
f 99//39 100//39 101//39
f 99//39 101//39 102//39
f 98//39 97//39 103//39
f 98//39 103//39 104//39
f 100//40 99//40 94//40
f 100//40 94//40 93//40
f 100//41 93//41 96//41
f 100//41 96//41 101//41
f 90//41 98//41 104//41
f 90//41 104//41 91//41
f 95//42 94//42 99//42
f 95//42 99//42 102//42
f 103//42 97//42 89//42
f 103//42 89//42 92//42
f 104//40 103//40 92//40
f 104//40 92//40 91//40
f 95//38 102//38 101//38
f 95//38 101//38 96//38
o 畳.004
v -0.118230 2.327900 0.908417
v -0.059141 2.338319 0.908417
v -0.059141 2.338319 0.028417
v -0.118230 2.327900 0.028417
v 0.246479 0.605058 0.028417
v 0.187391 0.594639 0.028417
v 0.246479 0.605058 0.908417
v 0.187391 0.594639 0.908417
v -0.058330 2.339478 0.027417
v -0.119388 2.328712 0.027417
v -0.119388 2.328712 0.068417
v -0.058330 2.339478 0.068417
v -0.119388 2.328712 0.909417
v -0.058330 2.339478 0.909417
v -0.058330 2.339478 0.868417
v -0.119388 2.328712 0.868417
v 0.247638 0.604247 0.027417
v 0.186580 0.593480 0.027417
v 0.247638 0.604247 0.909417
v 0.186580 0.593480 0.909417
v 0.186580 0.593480 0.868417
v 0.247638 0.604247 0.868417
v 0.247638 0.604247 0.068417
v 0.186580 0.593480 0.068417
vn -0.1736 0.9848 -0.0000
vn -0.0000 -0.0000 -1.0000
vn 0.1736 -0.9848 -0.0000
vn -0.0000 -0.0000 1.0000
vn -0.9848 -0.1736 -0.0000
vn 0.9848 0.1736 -0.0000
s 0
f 105//43 106//43 107//43
f 105//43 107//43 108//43
f 108//44 107//44 109//44
f 108//44 109//44 110//44
f 110//45 109//45 111//45
f 110//45 111//45 112//45
f 112//46 111//46 106//46
f 112//46 106//46 105//46
f 108//47 110//47 112//47
f 108//47 112//47 105//47
f 109//48 107//48 106//48
f 109//48 106//48 111//48
f 113//43 114//43 115//43
f 113//43 115//43 116//43
f 117//43 118//43 119//43
f 117//43 119//43 120//43
f 114//44 113//44 121//44
f 114//44 121//44 122//44
f 123//45 124//45 125//45
f 123//45 125//45 126//45
f 122//45 121//45 127//45
f 122//45 127//45 128//45
f 124//46 123//46 118//46
f 124//46 118//46 117//46
f 124//47 117//47 120//47
f 124//47 120//47 125//47
f 114//47 122//47 128//47
f 114//47 128//47 115//47
f 119//48 118//48 123//48
f 119//48 123//48 126//48
f 127//48 121//48 113//48
f 127//48 113//48 116//48
f 128//46 127//46 116//46
f 128//46 116//46 115//46
f 119//44 126//44 125//44
f 119//44 125//44 120//44
o Cube.004
v 0.016707 -0.002359 0.775000
v 0.016707 -0.002359 0.825000
v -0.382684 2.262699 0.775000
v -0.382684 2.262699 0.825000
v 0.213668 0.032371 0.775000
v 0.213668 0.032371 0.825000
v -0.185723 2.297429 0.775000
v -0.185723 2.297429 0.825000
vn -0.9848 -0.1736 -0.0000
vn -0.1736 0.9848 -0.0000
vn 0.9848 0.1736 -0.0000
vn 0.1736 -0.9848 -0.0000
vn -0.0000 -0.0000 -1.0000
vn -0.0000 -0.0000 1.0000
vt 0.375000 0.000000
vt 0.625000 0.000000
vt 0.625000 0.250000
vt 0.375000 0.250000
vt 0.625000 0.500000
vt 0.375000 0.500000
vt 0.625000 0.750000
vt 0.375000 0.750000
vt 0.625000 1.000000
vt 0.375000 1.000000
vt 0.125000 0.500000
vt 0.125000 0.750000
vt 0.875000 0.500000
vt 0.875000 0.750000
s 0
usemtl Material.003
f 129/57/49 130/58/49 132/59/49 131/60/49
f 131/60/50 132/59/50 136/61/50 135/62/50
f 135/62/51 136/61/51 134/63/51 133/64/51
f 133/64/52 134/63/52 130/65/52 129/66/52
f 131/67/53 135/62/53 133/64/53 129/68/53
f 136/61/54 132/69/54 130/70/54 134/63/54
o Cube.005
v -0.771421 0.032371 0.775000
v -0.771421 0.032371 0.825000
v -0.372030 2.297429 0.775000
v -0.372030 2.297429 0.825000
v -0.574459 -0.002359 0.775000
v -0.574459 -0.002359 0.825000
v -0.175068 2.262699 0.775000
v -0.175068 2.262699 0.825000
vn -0.9848 0.1736 -0.0000
vn 0.1736 0.9848 -0.0000
vn 0.9848 -0.1736 -0.0000
vn -0.1736 -0.9848 -0.0000
vn -0.0000 -0.0000 -1.0000
vn -0.0000 -0.0000 1.0000
vt 0.375000 0.000000
vt 0.625000 0.000000
vt 0.625000 0.250000
vt 0.375000 0.250000
vt 0.625000 0.500000
vt 0.375000 0.500000
vt 0.625000 0.750000
vt 0.375000 0.750000
vt 0.625000 1.000000
vt 0.375000 1.000000
vt 0.125000 0.500000
vt 0.125000 0.750000
vt 0.875000 0.500000
vt 0.875000 0.750000
s 0
usemtl Material.004
f 137/71/55 138/72/55 140/73/55 139/74/55
f 139/74/56 140/73/56 144/75/56 143/76/56
f 143/76/57 144/75/57 142/77/57 141/78/57
f 141/78/58 142/77/58 138/79/58 137/80/58
f 139/81/59 143/76/59 141/78/59 137/82/59
f 144/75/60 140/83/60 138/84/60 142/77/60
o Cube.006
v -0.056614 0.433641 1.000000
v -0.073978 0.532122 1.000000
v -0.056614 0.433641 -1.000000
v -0.073978 0.532122 -1.000000
v 0.337309 0.503101 1.000000
v 0.319945 0.601581 1.000000
v 0.337309 0.503101 -1.000000
v 0.319945 0.601581 -1.000000
vn -0.9848 -0.1736 -0.0000
vn -0.0000 -0.0000 -1.0000
vn 0.9848 0.1736 -0.0000
vn -0.0000 -0.0000 1.0000
vn 0.1736 -0.9848 -0.0000
vn -0.1736 0.9848 -0.0000
vt 0.375000 0.000000
vt 0.625000 0.000000
vt 0.625000 0.250000
vt 0.375000 0.250000
vt 0.625000 0.500000
vt 0.375000 0.500000
vt 0.625000 0.750000
vt 0.375000 0.750000
vt 0.625000 1.000000
vt 0.375000 1.000000
vt 0.125000 0.500000
vt 0.125000 0.750000
vt 0.875000 0.500000
vt 0.875000 0.750000
s 0
usemtl Material.005
f 145/85/61 146/86/61 148/87/61 147/88/61
f 147/88/62 148/87/62 152/89/62 151/90/62
f 151/90/63 152/89/63 150/91/63 149/92/63
f 149/92/64 150/91/64 146/93/64 145/94/64
f 147/95/65 151/90/65 149/92/65 145/96/65
f 152/89/66 148/97/66 146/98/66 150/91/66
